# xmcd
#
# Track frame offsets:
#	150
#	15662
#	26857
#
# Disc length: 579 seconds
#
# Revision: 0
# Processed by: cddbd v1.5.1PL0 Copyright (c) Steve Scherf et al.
# Submitted via: audiograbber 1.83.01
#
DISCID=1c024103
DTITLE=The Oak Ridge Boys - An Inconvenient Christmas - Radio Sampler
DYEAR=2004
DGENRE=Country
TTITLE0=The Most Inconvenient Christmas
TTITLE1=Winter Wonderland
TTITLE2=A Christmas Love Story
EXTD=
EXTT0=
EXTT1=
EXTT2=
PLAYORDER=
